#!OML:ASF E:\Steps\Project 1\Capture day 1\Session 2\Subject.ASF
:FULLY-SPECIFIED
:DEGREES
372
root 0.778546 16.78 15.0689 -162.349 -19.7616 182.366
lowerback -23.415 -5.5046 -9.29056
upperback 1.04277 -4.90083 0.271242
thorax 15.2746 -3.02239 3.80262
lowerneck 5.21673 -1.71016 -1.05996
upperneck 12.5868 -4.54333 9.13944
head 3.48141 -2.56169 3.15939
rclavicle -5.10877e-014 0
rhumerus -51.2815 -20.5569 -69.9982
rradius 31.3869
rwrist 0.654278
rhand -6.83747 -55.7561
rfingers 7.12502
rthumb 19.0271 -84.8455
lclavicle -5.10877e-014 0
lhumerus -35.6325 -6.92155 73.7255
lradius 37.0959
lwrist 2.72747
lhand -22.8909 -11.4245
lfingers 7.12502
lthumb 3.54844 18.5257
rfemur -43.4822 -4.20625 2.81122
rtibia 17.7904
rfoot 1.29352 -18
rtoes -20.3106
lfemur -4.27533 -17.7846 -7.71403
ltibia 25.7871
lfoot -18.0565 -10.71
ltoes -2.09189
373
root 0.836142 16.7586 14.9822 -161.708 -19.4439 181.978
lowerback -23.3731 -5.36373 -9.28504
upperback 0.993265 -4.71283 0.159139
thorax 15.1485 -2.9298 3.74648
lowerneck 4.94876 -1.73546 -1.15804
upperneck 12.8389 -4.62172 9.17958
head 3.6299 -2.59345 3.19051
rclavicle -3.43897e-014 1.59028e-014
rhumerus -50.9984 -20.4228 -70.1392
rradius 31.4907
rwrist 0.362536
rhand -7.78932 -53.8649
rfingers 7.12502
rthumb 18.1115 -83.0417
lclavicle -3.43897e-014 1.59028e-014
lhumerus -35.4099 -6.63124 73.7401
lradius 37.2585
lwrist 2.60295
lhand -22.7733 -10.8375
lfingers 7.12502
lthumb 3.66198 19.1107
rfemur -44.3303 -5.04632 3.40855
rtibia 18.5049
rfoot 0.879436 -17.0057
rtoes -21.1376
lfemur -4.53929 -17.552 -7.7757
ltibia 25.823
lfoot -17.6532 -10.5913
ltoes -1.65531
374
root 0.897163 16.7405 14.9006 -161.042 -18.997 181.712
lowerback -23.3003 -5.13495 -9.13872
upperback 0.887543 -4.45384 0.0218067
thorax 14.9114 -2.79013 3.61279
lowerneck 4.91774 -1.76183 -1.08628
upperneck 12.8483 -4.65482 9.16662
head 3.63867 -2.60451 3.17167
rclavicle -2.48481e-014 4.92986e-014
rhumerus -50.7078 -20.393 -70.2931
rradius 31.6033
rwrist 0.10321
rhand -8.65805 -53.2907
rfingers 7.12502
rthumb 17.2756 -82.5429
lclavicle -2.48481e-014 4.92986e-014
lhumerus -35.2132 -6.36354 73.7647
lradius 37.3791
lwrist 2.43835
lhand -22.8324 -10.3775
lfingers 7.12502
lthumb 3.60495 19.5718
rfemur -45.4834 -5.597 4.00403
rtibia 19.4553
rfoot 0.308709 -16.0329
rtoes -21.1808
lfemur -4.91076 -17.2772 -7.73655
ltibia 25.982
lfoot -17.4936 -10.286
ltoes -2.629
375
root 0.958993 16.7298 14.8236 -160.58 -18.5387 181.494
lowerback -22.9304 -4.86161 -9.00673
upperback 0.829287 -4.15917 -0.0738421
thorax 14.5647 -2.63415 3.56245
lowerneck 4.71366 -1.70644 -0.975115
upperneck 12.9837 -4.58742 9.12449
head 3.71549 -2.55756 3.13659
rclavicle -2.60408e-014 2.8625e-014
rhumerus -50.4535 -20.4991 -70.2268
rradius 31.6586
rwrist 0.217858
rhand -8.5877 -53.8572
rfingers 7.12502
rthumb 17.3433 -83.1034
lclavicle -2.60408e-014 2.8625e-014
lhumerus -34.9643 -6.03162 73.8718
lradius 37.3565
lwrist 2.54768
lhand -22.8604 -10.7222
lfingers 7.12502
lthumb 3.57794 19.2276
rfemur -46.4023 -5.83309 4.44956
rtibia 20.3701
rfoot -0.307453 -15.1489
rtoes -20.6688
lfemur -5.16762 -17.1365 -7.73259
ltibia 26.2685
lfoot -17.193 -10.0078
ltoes -2.32614
376
root 1.01716 16.7231 14.7459 -160.202 -17.9618 181.248
lowerback -22.5309 -4.59386 -8.91883
upperback 0.867423 -3.85298 -0.152705
thorax 14.323 -2.47938 3.55509
lowerneck 4.52579 -1.7876 -0.797325
upperneck 12.9267 -4.62966 8.86157
head 3.7169 -2.55995 3.00728
rclavicle 4.47266e-014 9.54166e-015
rhumerus -50.021 -20.5482 -70.201
rradius 31.7086
rwrist 0.50972
rhand -7.59255 -54.5749
rfingers 7.12502
rthumb 18.3009 -83.734
lclavicle 4.47266e-014 9.54166e-015
lhumerus -34.7106 -5.71144 74.0183
lradius 37.3669
lwrist 2.73657
lhand -22.9676 -11.3094
lfingers 7.12502
lthumb 3.47441 18.642
rfemur -47.2389 -5.93887 4.81283
rtibia 21.2733
rfoot -0.832537 -14.1076
rtoes -21.328
lfemur -5.22927 -16.9732 -7.88504
ltibia 26.4823
lfoot -16.6873 -9.68593
ltoes -1.32428
377
root 1.07534 16.7209 14.6699 -159.87 -17.3205 181.127
lowerback -22.1653 -4.31689 -8.69917
upperback 0.944921 -3.56009 -0.23833
thorax 14.1409 -2.3215 3.45435
lowerneck 4.57187 -1.82 -0.398483
upperneck 12.5893 -4.53366 8.42932
head 3.55386 -2.49438 2.78121
rclavicle -4.77083e-014 -2.78299e-014
rhumerus -49.4372 -20.509 -70.3909
rradius 31.7621
rwrist 0.705167
rhand -6.44372 -55.2712
rfingers 7.12502
rthumb 19.4058 -84.3228
lclavicle -4.77083e-014 -2.78299e-014
lhumerus -34.4039 -5.2948 74.1028
lradius 37.2576
lwrist 2.7649
lhand -23.468 -11.9144
lfingers 7.12502
lthumb 2.99113 18.0443
rfemur -48.1984 -5.97639 5.3538
rtibia 22.323
rfoot -1.40768 -13.0228
rtoes -22.4528
lfemur -5.16727 -16.6685 -7.92644
ltibia 26.4897
lfoot -16.1513 -9.34338
ltoes -0.794217
378
root 1.13731 16.7259 14.6017 -159.64 -16.658 181.043
lowerback -21.5915 -4.05524 -8.50713
upperback 1.02775 -3.29858 -0.317412
thorax 13.8541 -2.17677 3.37185
lowerneck 4.73743 -1.65751 -0.0379087
upperneck 12.0944 -4.17233 8.15118
head 3.30922 -2.30213 2.62266
rclavicle 1.51076e-014 -2.54444e-014
rhumerus -48.906 -20.2757 -70.7536
rradius 32.1615
rwrist 0.409853
rhand -6.84723 -55.351
rfingers 7.12502
rthumb 19.0177 -84.4412
lclavicle 1.51076e-014 -2.54444e-014
lhumerus -34.099 -4.802 74.1689
lradius 37.007
lwrist 2.77699
lhand -23.9239 -11.9842
lfingers 7.12502
lthumb 2.55083 17.9803
rfemur -49.1149 -5.91771 5.93736
rtibia 23.4341
rfoot -1.9928 -11.9793
rtoes -22.4129
lfemur -5.05225 -16.4124 -7.94155
ltibia 26.4689
lfoot -15.6337 -8.7098
ltoes -4.25656
379
root 1.19817 16.7337 14.5359 -159.333 -15.9026 180.87
lowerback -21.0149 -3.8911 -8.40342
upperback 1.10454 -3.14759 -0.365656
thorax 13.5821 -2.09054 3.33328
lowerneck 3.75281 -1.61219 -0.35872
upperneck 12.8836 -4.26919 8.40218
head 3.79362 -2.32617 2.76543
rclavicle -1.19271e-014 -3.97569e-015
rhumerus -48.2692 -19.6802 -71.2215
rradius 32.7823
rwrist -0.0603582
rhand -7.98754 -55.0492
rfingers 7.12502
rthumb 17.9208 -84.2435
lclavicle -1.19271e-014 -3.97569e-015
lhumerus -33.9824 -4.31298 74.3307
lradius 36.9357
lwrist 3.12793
lhand -24.201 -11.7377
lfingers 7.12502
lthumb 2.2832 18.2299
rfemur -49.877 -4.87294 5.7949
rtibia 24.1936
rfoot -2.82908 -11.9185
rtoes -20.727
lfemur -5.04188 -16.2775 -8.12701
ltibia 26.6236
lfoot -15.2341 -7.73413
ltoes -12.3135
380
root 1.25663 16.744 14.4662 -158.971 -15.1706 180.735
lowerback -20.5551 -3.81007 -8.28672
upperback 1.18229 -3.10396 -0.359158
thorax 13.3954 -2.0569 3.30696
lowerneck 4.60113 -1.15695 0.038948
upperneck 11.6439 -3.34859 7.85019
head 3.1229 -1.87742 2.51287
rclavicle -2.52457e-014 -1.43125e-014
rhumerus -47.4923 -19.0191 -71.6207
rradius 33.2713
rwrist 0.0654892
rhand -8.53646 -54.3953
rfingers 7.12502
rthumb 17.3926 -83.6372
lclavicle -2.52457e-014 -1.43125e-014
lhumerus -33.991 -3.67388 74.4733
lradius 37.0277
lwrist 3.63424
lhand -24.0675 -12.2145
lfingers 7.12502
lthumb 2.41221 17.7516
rfemur -50.8953 -4.72659 6.29241
rtibia 25.2805
rfoot -3.65153 -11.0061
rtoes -20.2508
lfemur -5.09867 -16.2019 -8.30044
ltibia 26.8896
lfoot -14.9163 -7.03718
ltoes -17.2014
